<?xml version="1.0" encoding="UTF-8"?>
<svg version="1.1" xmlns="http://www.w3.org/2000/svg" width="1002" height="182">
<path d="M0 0 C6.27 0 12.54 0 19 0 C19 34.32 19 68.64 19 104 C12.73 104 6.46 104 0 104 C-0.33 102.02 -0.66 100.04 -1 98 C-2.299375 99.175625 -2.299375 99.175625 -3.625 100.375 C-9.10322484 105.33148914 -15.71154206 105.44456396 -22.75 105.30859375 C-30.94159308 104.53078623 -37.68998005 100.19115863 -43 94 C-50.59383193 82.47433631 -50.97523394 67.7836867 -48.7578125 54.56640625 C-46.78225837 45.26908192 -42.17469224 36.52302891 -34.125 31.125 C-27.40970699 27.32606281 -20.09652477 25.84636804 -12.48046875 27.5703125 C-7.7803972 28.87779946 -5.00335313 29.99748516 -1 33 C-0.67 22.11 -0.34 11.22 0 0 Z M-24 47 C-29.69355744 56.12507989 -31.23162126 65.11310421 -29.57421875 75.7265625 C-28.27077425 81.0203064 -26.45661354 84.65079883 -22.0234375 87.93359375 C-17.78021898 90.16988459 -13.64746142 90.75418842 -9.01171875 89.43359375 C-4.73812263 87.39288297 -2.79478159 84.56605563 -0.80932617 80.37866211 C0.68842678 75.97666906 0.53472333 71.60399503 0.4375 67 C0.44458984 66.05382812 0.45167969 65.10765625 0.45898438 64.1328125 C0.40455648 58.08712921 -0.41559989 53.48412176 -3 48 C-7.18719073 44.01706247 -10.06729201 42.60092639 -15.91015625 42.73828125 C-19.5786431 43.19769923 -21.31017191 44.48949378 -24 47 Z " fill="#050708" transform="translate(750,26)"/>
<path d="M0 0 C7.81924259 6.39756212 12.25502335 14.18006291 13.75 24.25 C14.66006432 37.59866522 14.97584108 52.48651874 5.75 63.25 C-0.92261508 70.11624007 -6.62855768 73.32281902 -16.25 73.625 C-24.02822248 73.40893826 -28.60837175 71.89162825 -34.25 66.25 C-34.58 77.47 -34.91 88.69 -35.25 100.25 C-41.52 100.25 -47.79 100.25 -54.25 100.25 C-54.25 66.26 -54.25 32.27 -54.25 -2.75 C-47.98 -2.75 -41.71 -2.75 -35.25 -2.75 C-34.92 -1.1 -34.59 0.55 -34.25 2.25 C-33.610625 1.651875 -32.97125 1.05375 -32.3125 0.4375 C-22.08199009 -6.87000708 -10.7183124 -5.77139899 0 0 Z M-33.25 17.25 C-35.92890206 22.92961629 -35.65536206 28.38844426 -35.6875 34.5625 C-35.73680664 36.21668945 -35.73680664 36.21668945 -35.78710938 37.90429688 C-35.83329196 44.93664507 -35.03553803 49.90150852 -30.25 55.25 C-26.67188775 57.93358419 -24.04335776 58.4619985 -19.6875 58.1875 C-15.52060729 57.51632265 -13.13349647 56.46303892 -10.25 53.25 C-4.89409325 44.73501605 -4.20604603 35.4652101 -5.875 25.6875 C-7.21873836 20.21656526 -10.31651308 15.06483471 -15.17578125 12.05859375 C-22.47451943 9.21332293 -28.49287345 11.17510986 -33.25 17.25 Z " fill="#050708" transform="translate(244.25,57.75)"/>
<path d="M0 0 C6.27 0 12.54 0 19 0 C19.495 20.295 19.495 20.295 20 41 C26.98110167 37.10044357 26.98110167 37.10044357 33.9050293 33.1015625 C45.15290935 27.15772863 50.39915488 29 65 29 C65 53.75 65 78.5 65 104 C58.73 104 52.46 104 46 104 C45.67 85.19 45.34 66.38 45 47 C32.625 52.94 32.625 52.94 20 59 C19.67 73.85 19.34 88.7 19 104 C12.73 104 6.46 104 0 104 C0 69.68 0 35.36 0 0 Z " fill="#050708" transform="translate(271,26)"/>
<path d="M0 0 C7.57802498 6.5113702 12.02310717 14.27121956 13.5 24.1875 C14.46202055 37.67757564 14.28609311 51.68667275 5.12109375 62.54296875 C-2.5780822 70.35345808 -11.26534174 72.46059981 -22 72.5625 C-32.42638882 72.45224602 -40.74932392 70.5548093 -48.5 63.1875 C-56.86845374 54.19283543 -58.87596819 43.29548419 -58.7109375 31.28125 C-57.96739074 20.37589746 -55.61426074 9.52629352 -47.09765625 2.08984375 C-34.21813372 -7.34222764 -13.62263425 -9.81138686 0 0 Z M-34.5 15.1875 C-40.16172577 23.62128735 -39.65208346 35.1824211 -38.0625 44.84765625 C-36.47392026 50.00061177 -32.8866305 53.30628133 -28.5 56.1875 C-23.79477445 57.75590852 -19.97351184 57.73645539 -15.3125 56 C-9.71595294 52.39333634 -7.3192183 47.7920605 -5.875 41.4375 C-4.73251879 31.53599621 -5.13564395 22.28758952 -11.5 14.1875 C-13.96271649 11.33074887 -15.91982629 10.3808779 -19.734375 9.9140625 C-26.00587466 9.66086531 -30.28033168 10.28507368 -34.5 15.1875 Z " fill="#050708" transform="translate(406.5,58.8125)"/>
<path d="M0 0 C7.58480244 6.28866531 10.29676235 14.51645106 11.5390625 24.03515625 C11.87398198 28.85799678 11.8515625 33.70070056 11.8515625 38.53515625 C-3.9884375 38.53515625 -19.8284375 38.53515625 -36.1484375 38.53515625 C-32.64087483 49.44206945 -32.64087483 49.44206945 -24.8984375 55.91015625 C-19.62123236 57.10952105 -14.90381449 56.54356431 -10.2109375 53.84765625 C-7.61013045 51.2384296 -7.61013045 51.2384296 -6.1484375 45.53515625 C-0.5384375 45.53515625 5.0715625 45.53515625 10.8515625 45.53515625 C10.47193436 54.64623159 8.50834369 59.70424262 2.2265625 66.28515625 C-6.46395395 72.77554195 -16.64609993 73.62470357 -27.1484375 72.53515625 C-36.59966661 70.53608526 -43.5889131 65.66240031 -48.9609375 57.66015625 C-53.35165695 49.77700032 -54.63547102 42.56656164 -54.5234375 33.59765625 C-54.53503906 32.67275391 -54.54664063 31.74785156 -54.55859375 30.79492188 C-54.51412473 20.21870587 -51.94262074 11.83399036 -44.7734375 3.91015625 C-32.81053106 -6.91342577 -13.68128686 -9.3479709 0 0 Z M-31.1484375 14.53515625 C-33.97496252 18.37050531 -35.20308632 21.80840033 -36.1484375 26.53515625 C-26.2484375 26.53515625 -16.3484375 26.53515625 -6.1484375 26.53515625 C-6.09527197 19.0424846 -6.09527197 19.0424846 -10.1484375 13.53515625 C-13.98539985 10.14960124 -17.78559915 10.01562338 -22.71484375 10.19140625 C-26.43218971 10.71648883 -28.41374219 11.99579632 -31.1484375 14.53515625 Z " fill="#050708" transform="translate(87.1484375,58.46484375)"/>
<path d="M0 0 C7.54711104 6.25741485 9.90476482 14.11258772 11.5390625 23.47265625 C11.9242257 28.47977791 11.8515625 33.51324247 11.8515625 38.53515625 C-3.9884375 38.53515625 -19.8284375 38.53515625 -36.1484375 38.53515625 C-33.78720838 47.41200802 -33.78720838 47.41200802 -28.0859375 54.72265625 C-22.51420769 56.26377301 -17.95580075 56.97242155 -12.2734375 55.59765625 C-7.97582753 52.76123367 -7.51033816 50.42197627 -6.1484375 45.53515625 C-0.5384375 45.53515625 5.0715625 45.53515625 10.8515625 45.53515625 C10.3491642 54.70392531 8.85975496 59.86637001 2.2265625 66.28515625 C-6.29871659 73.24616395 -16.517947 73.52613418 -27.1484375 72.53515625 C-36.5781305 70.55492072 -43.55540342 65.66253568 -48.9609375 57.72265625 C-53.31059026 49.93179126 -54.6914615 41.9988137 -54.5859375 33.16015625 C-54.57618896 32.24258545 -54.56644043 31.32501465 -54.55639648 30.37963867 C-54.25755638 18.91734786 -51.66083706 10.91054404 -43.5078125 2.59765625 C-31.93418609 -7.51968604 -12.71045767 -8.68463542 0 0 Z M-32.3984375 15.72265625 C-34.74061912 19.16647343 -34.74061912 19.16647343 -36.1484375 26.53515625 C-26.2484375 26.53515625 -16.3484375 26.53515625 -6.1484375 26.53515625 C-6.09527197 19.0424846 -6.09527197 19.0424846 -10.1484375 13.53515625 C-13.86489322 10.34962278 -17.21012041 10.06938583 -21.9375 10.25 C-26.41116289 10.82699186 -29.21586321 12.6284868 -32.3984375 15.72265625 Z " fill="#050708" transform="translate(836.1484375,58.46484375)"/>
<path d="M0 0 C6.27 0 12.54 0 19 0 C19.33 18.81 19.66 37.62 20 57 C27.92 53.04 35.84 49.08 44 45 C44.66 45 45.32 45 46 45 C46 30.15 46 15.3 46 0 C52.27 0 58.54 0 65 0 C65 24.75 65 49.5 65 75 C59.39 75 53.78 75 48 75 C47.06508817 70.32544083 46.92027988 66.7034873 47 62 C46.32235596 62.39380859 45.64471191 62.78761719 44.9465332 63.19335938 C41.75974104 65.00962403 38.53815537 66.75375325 35.3125 68.5 C34.24837891 69.12003906 33.18425781 69.74007812 32.08789062 70.37890625 C20.30179041 76.63275535 15.23535853 75 0 75 C0 50.25 0 25.5 0 0 Z " fill="#050708" transform="translate(110,55)"/>
<path d="M0 0 C4.03012335 3.89078398 6.85848958 7.83309438 7.11328125 13.53515625 C7.12378144 16.02370184 7.06633822 18.51231661 7 21 C1.39 21 -4.22 21 -10 21 C-10.37125 19.411875 -10.7425 17.82375 -11.125 16.1875 C-12.23870235 12.53041229 -12.65355601 11.2819893 -15.6875 8.8125 C-19.99159058 7.75677967 -22.65926863 8.0749261 -27 9 C-30.01785339 10.64490586 -30.01785339 10.64490586 -30.875 12.8125 C-31.06308057 16.10390992 -30.00388713 17.39064989 -28 20 C-25.48344455 21.61421826 -22.80607859 22.76193719 -20.0625 23.9375 C-18.5257486 24.63216453 -16.98929178 25.32748109 -15.453125 26.0234375 C-13.96915025 26.68319268 -12.48479875 27.34210137 -11 28 C4.25563264 34.82839452 4.25563264 34.82839452 7.83203125 42.87109375 C9.87884951 49.43411747 9.40029281 56.2994353 6.25 62.375 C0.7981919 68.73544278 -4.76108997 71.44045002 -13.10693359 72.18896484 C-23.84426268 72.81736969 -36.53130321 73.31476117 -45.27734375 66.12890625 C-51.56352353 59.32851953 -52.24123258 54.04622158 -52 45 C-46.06 45 -40.12 45 -34 45 C-33.57682292 47.24609375 -33.15364583 49.4921875 -32.73046875 51.73828125 C-31.90621167 54.29039274 -31.09274359 55.35316788 -29 57 C-25.9489365 58.01702117 -23.75800939 58.16582083 -20.5625 58.1875 C-19.61503906 58.20167969 -18.66757812 58.21585937 -17.69140625 58.23046875 C-14.9072094 57.99205422 -13.30314202 57.56340848 -11 56 C-9.82202611 53.18444653 -9.82202611 53.18444653 -10 50 C-12.6132271 46.02689857 -15.01661803 44.16061638 -19.359375 42.31640625 C-20.39320313 41.86330078 -21.42703125 41.41019531 -22.4921875 40.94335938 C-23.56726563 40.48767578 -24.64234375 40.03199219 -25.75 39.5625 C-45.3398505 31.20940681 -45.3398505 31.20940681 -49.375 23.12109375 C-51.1222018 17.19152765 -51.00881837 11.13403886 -48.375 5.5625 C-36.19721156 -7.57669279 -15.0425192 -10.61824885 0 0 Z " fill="#050708" transform="translate(958,59)"/>
<path d="M0 0 C5.05453071 4.3324549 9.22800101 8.54440485 10.625 15.25 C10.625 17.56 10.625 19.87 10.625 22.25 C4.685 22.25 -1.255 22.25 -7.375 22.25 C-8.035 19.61 -8.695 16.97 -9.375 14.25 C-13.43347463 11.20614403 -19.50142433 11.6398252 -24.375 12.25 C-29.19617692 14.3927453 -31.53637123 17.21162328 -33.62109375 21.921875 C-36.39736104 30.49521855 -35.93596655 40.06757856 -32.48828125 48.390625 C-30.66933396 51.81283414 -28.87686442 54.54639028 -25.375 56.25 C-20.63892779 57.49061547 -17.47832593 57.781231 -13 55.625 C-9.10277411 52.09893848 -7.64595877 49.3338351 -6.375 44.25 C-0.435 44.25 5.505 44.25 11.625 44.25 C11.12236144 53.29749408 9.71801029 59.5763415 3.0625 66 C-5.97655071 73.26114919 -16.06482019 74.435452 -27.375 73.25 C-36.70775191 71.17086378 -44.33608642 66.75088795 -49.6875 58.75 C-55.93218681 47.43469556 -57.042242 33.36309953 -54.19140625 20.86328125 C-51.62423524 12.6458774 -47.99076114 4.75362299 -40.375 0.25 C-27.31173173 -6.16740842 -13.13855298 -6.81258303 0 0 Z " fill="#050708" transform="translate(592.375,57.75)"/>
<path d="M0 0 C15.84 0 31.68 0 48 0 C48 4.95 48 9.9 48 15 C43.38 15 38.76 15 34 15 C34 29.85 34 44.7 34 60 C38.62 60 43.24 60 48 60 C48 64.95 48 69.9 48 75 C32.16 75 16.32 75 0 75 C0 70.05 0 65.1 0 60 C4.95 60 9.9 60 15 60 C15 45.15 15 30.3 15 15 C10.05 15 5.1 15 0 15 C0 10.05 0 5.1 0 0 Z " fill="#050708" transform="translate(480,55)"/>
<path d="M0 0 C6.27 0 12.54 0 19 0 C19.33 2.97 19.66 5.94 20 9 C20.56509277 8.72736328 21.13018555 8.45472656 21.71240234 8.17382812 C24.26469044 6.94520148 26.81978936 5.72253612 29.375 4.5 C30.26445312 4.07074219 31.15390625 3.64148437 32.0703125 3.19921875 C32.92109375 2.79316406 33.771875 2.38710938 34.6484375 1.96875 C35.43395996 1.59169922 36.21948242 1.21464844 37.02880859 0.82617188 C39 0 39 0 41 0 C41 5.61 41 11.22 41 17 C34.07 20.3 27.14 23.6 20 27 C19.67 42.84 19.34 58.68 19 75 C12.73 75 6.46 75 0 75 C0 50.25 0 25.5 0 0 Z " fill="#050708" transform="translate(433,55)"/>
<path d="M0 0 C6.27 0 12.54 0 19 0 C19.33 2.97 19.66 5.94 20 9 C20.56509277 8.72736328 21.13018555 8.45472656 21.71240234 8.17382812 C24.26469044 6.94520148 26.81978936 5.72253612 29.375 4.5 C30.26445313 4.07074219 31.15390625 3.64148437 32.0703125 3.19921875 C32.92109375 2.79316406 33.771875 2.38710938 34.6484375 1.96875 C35.43395996 1.59169922 36.21948242 1.21464844 37.02880859 0.82617188 C39 0 39 0 41 0 C41 5.61 41 11.22 41 17 C34.07 20.3 27.14 23.6 20 27 C19.67 42.84 19.34 58.68 19 75 C12.73 75 6.46 75 0 75 C0 50.25 0 25.5 0 0 Z " fill="#050708" transform="translate(859,55)"/>
<path d="M0 0 C0.74507812 0.00451172 1.49015625 0.00902344 2.2578125 0.01367188 C4.0885764 0.02540754 5.91929873 0.0433415 7.75 0.0625 C7.75 3.6925 7.75 7.3225 7.75 11.0625 C6.85796875 11.08828125 5.9659375 11.1140625 5.046875 11.140625 C3.87640625 11.19734375 2.7059375 11.2540625 1.5 11.3125 C-0.24023438 11.38210937 -0.24023438 11.38210937 -2.015625 11.453125 C-5.26737112 11.84420575 -5.26737112 11.84420575 -7.63671875 13.67578125 C-9.79625366 16.87063799 -9.75117171 19.16902595 -9.8125 23 C-9.90306836 27.98125999 -10.24998808 31.01394023 -13.25 35.0625 C-15.4375 36.875 -15.4375 36.875 -17.25 38.0625 C-16.46625 38.619375 -15.6825 39.17625 -14.875 39.75 C-11.08501694 43.0887946 -10.36322896 45.71808527 -9.94140625 50.7265625 C-9.85530214 53.37230711 -9.77197942 56.01814367 -9.69140625 58.6640625 C-9.4840973 61.92975625 -9.4840973 61.92975625 -8.1640625 63.98046875 C-5.20310829 65.65431429 -2.43052716 65.59550334 0.9375 65.75 C2.20980469 65.81574219 3.48210938 65.88148437 4.79296875 65.94921875 C5.76878906 65.98660156 6.74460937 66.02398437 7.75 66.0625 C7.75 69.6925 7.75 73.3225 7.75 77.0625 C-10.69633097 77.81712263 -10.69633097 77.81712263 -17.25 73.0625 C-22.51675797 67.52565188 -22.49989406 62.20866342 -22.76757812 54.95507812 C-22.93019037 49.6533679 -22.93019037 49.6533679 -25.25 45.0625 C-27.92790463 44.22363831 -30.4237941 44.24483586 -33.25 44.0625 C-33.25 40.4325 -33.25 36.8025 -33.25 33.0625 C-31.785625 32.60875 -30.32125 32.155 -28.8125 31.6875 C-26.36327425 30.96975434 -26.36327425 30.96975434 -24.25 30.0625 C-22.99678641 27.55607282 -23.12604242 25.36113983 -23.06152344 22.60229492 C-22.857492 15.42314102 -22.56001746 9.44688745 -17.25 4.0625 C-11.81017173 -0.05054088 -6.62268412 -0.07605556 0 0 Z " fill="#77479C" transform="translate(639.25,52.9375)"/>
<path d="M0 0 C18.19338465 -0.79485661 18.19338465 -0.79485661 24 4 C29.78204854 9.59223382 30.21914581 14.9080025 30.51757812 22.55078125 C30.70771749 26.18854201 30.93076619 27.89614929 33 31 C34.95385067 31.78988145 34.95385067 31.78988145 37.125 32.1875 C38.40375 32.455625 39.6825 32.72375 41 33 C41 36.63 41 40.26 41 44 C38.98177083 44.16276042 36.96354167 44.32552083 34.9453125 44.48828125 C32.60480784 44.87393036 32.60480784 44.87393036 31 48 C30.82470089 50.74443683 30.7318194 53.44175186 30.6875 56.1875 C30.42135085 62.80509358 30.0864012 68.22264596 25 73 C18.30223365 79.00549076 8.35834337 77.34193223 0 77 C0 73.37 0 69.74 0 66 C0.89203125 65.97421875 1.7840625 65.9484375 2.703125 65.921875 C3.87359375 65.86515625 5.0440625 65.8084375 6.25 65.75 C7.41015625 65.70359375 8.5703125 65.6571875 9.765625 65.609375 C13.01176507 65.214709 13.01176507 65.214709 15.38671875 63.41796875 C17.61231415 60.08227008 17.50331237 57.54385453 17.5625 53.5625 C17.64937886 48.41620545 17.86492269 45.1699572 21 41 C23.1875 39.1875 23.1875 39.1875 25 38 C23.824375 37.38125 23.824375 37.38125 22.625 36.75 C19.74572752 34.83048502 19.15659251 34.17537216 18 31 C17.70371228 27.17365574 17.62213578 23.3677251 17.5390625 19.53125 C17.25737016 16.01531893 17.25737016 16.01531893 15.3828125 13.578125 C12.26286103 11.51179648 9.96852114 11.39874085 6.25 11.25 C4.49429688 11.16492188 4.49429688 11.16492188 2.703125 11.078125 C1.81109375 11.05234375 0.9190625 11.0265625 0 11 C0 7.37 0 3.74 0 0 Z " fill="#77479C" transform="translate(653,53)"/>
<path d="M0 0 C6.93 0 13.86 0 21 0 C21 6.6 21 13.2 21 20 C14.07 20 7.14 20 0 20 C0 13.4 0 6.8 0 0 Z " fill="#050708" transform="translate(493,26)"/>
<path d="M0 0 C9.18762089 -0.48355899 9.18762089 -0.48355899 12.625 1.5625 C14.54211763 4.96102671 14.54861638 7.15968535 14 11 C12.625 13.4375 12.625 13.4375 10 15 C6.59264014 15.32578206 3.43853858 15.18097571 0 15 C0 10.05 0 5.1 0 0 Z M5 3 C5 5.97 5 8.94 5 12 C6.32 11.67 7.64 11.34 9 11 C9.76956136 8.65466049 9.76956136 8.65466049 10 6 C8.79081118 4.12359581 8.79081118 4.12359581 7 3 C6.34 3 5.68 3 5 3 Z " fill="#405D8C" transform="translate(952,141)"/>
<path d="M0 0 C1.588125 -0.061875 3.17625 -0.12375 4.8125 -0.1875 C6.15248047 -0.23970703 6.15248047 -0.23970703 7.51953125 -0.29296875 C10 0 10 0 11.828125 1.3515625 C13 3 13 3 12.9375 5.5625 C12 8 12 8 10.125 9.3125 C8 10 8 10 5 10 C5 11.65 5 13.3 5 15 C3.35 15 1.7 15 0 15 C0 10.05 0 5.1 0 0 Z M5 3 C5 3.99 5 4.98 5 6 C5.99 6 6.98 6 8 6 C7.67 5.01 7.34 4.02 7 3 C6.34 3 5.68 3 5 3 Z " fill="#405D8C" transform="translate(856,141)"/>
<path d="M0 0 C1.65 0 3.3 0 5 0 C5.99 2.31 6.98 4.62 8 7 C8.99 4.69 9.98 2.38 11 0 C12.65 0 14.3 0 16 0 C14.35 4.95 12.7 9.9 11 15 C9.02 15 7.04 15 5 15 C4.34865075 13.43979133 3.70417036 11.87671421 3.0625 10.3125 C2.70285156 9.44238281 2.34320312 8.57226562 1.97265625 7.67578125 C1.0429688 5.11820735 0.45837375 2.6778677 0 0 Z " fill="#405D8C" transform="translate(873,141)"/>
<path d="M0 0 C4.29 0 8.58 0 13 0 C13 0.99 13 1.98 13 3 C11.68 3 10.36 3 9 3 C9 6.96 9 10.92 9 15 C7.35 15 5.7 15 4 15 C4 11.04 4 7.08 4 3 C2.68 3 1.36 3 0 3 C0 2.01 0 1.02 0 0 Z " fill="#405D8C" transform="translate(934,141)"/>
<path d="M0 0 C3.96 0 7.92 0 12 0 C12 0.99 12 1.98 12 3 C10.68 3 9.36 3 8 3 C8 6.96 8 10.92 8 15 C6.68 15 5.36 15 4 15 C4 11.04 4 7.08 4 3 C2.68 3 1.36 3 0 3 C0 2.01 0 1.02 0 0 Z " fill="#405D8C" transform="translate(893,141)"/>
<path d="M0 0 C1.32 0 2.64 0 4 0 C4 3.96 4 7.92 4 12 C5.65 12 7.3 12 9 12 C9 12.99 9 13.98 9 15 C6.03 15 3.06 15 0 15 C0 10.05 0 5.1 0 0 Z " fill="#405D8C" transform="translate(921,141)"/>
<path d="M0 0 C2.475 0.495 2.475 0.495 5 1 C5 1.99 5 2.98 5 4 C3.35 4 1.7 4 0 4 C0 2.68 0 1.36 0 0 Z " fill="#405D8C" transform="translate(910,152)"/>
</svg>
